<?xml version="1.0" encoding="utf-8"?>
<!-- Generator: Adobe Illustrator 25.2.3, SVG Export Plug-In . SVG Version: 6.00 Build 0)  -->
<svg version="1.1" id="Layer_1" xmlns="http://www.w3.org/2000/svg" xmlns:xlink="http://www.w3.org/1999/xlink" x="0px" y="0px"
	 viewBox="0 0 444.67 313.03" style="enable-background:new 0 0 444.67 313.03;" xml:space="preserve">
<style type="text/css">
	.st0{fill:#FFFFFF;}
	.st1{fill:#675FA9;}
	.st2{fill:#413A8B;}
</style>
<g>
	<path class="st0" d="M21.26,124.27h75.22l-20.65,15.54v143.89l1.59,1.84h36.49c0,0,2.98-1.95,3.71-3.16
		c0.74-1.21,27.37-49.14,27.37-49.14v56.35H21.26l21.06-15.54l-0.08-134.07L21.26,124.27z"/>
	<path class="st0" d="M261.08,174.04h52.98l-10.65,13.44c0,0-0.98,2.02,0.25,5.18c1.15,3.16,26.22,71.89,26.22,71.89l22.32-61.69
		c0,0,0.6-4-0.66-5.72c-1.25-1.73-14.75-23.1-14.75-23.1h32.18L327.5,289.59h-19.77l-35.95-97.26
		C271.78,192.33,262.29,174.63,261.08,174.04z"/>
	<path class="st0" d="M213.52,171.85c-32.67,0-54.55,21.57-54.53,60.2c0.02,39.59,24.85,59.72,54.29,59.72
		c25.82,0,42.95-15.23,47.78-40.52c0,0,0.31-2.75,0.23-3.1c-0.44,0.08-0.96,0-0.96,0s-0.61,1.87-0.96,2.63
		c-7.89,17.04-18.04,21.39-32.47,23.12c-20.32,2.43-33.71-17.33-33.71-47.08l68.57-0.07C266.06,193.26,246.34,171.85,213.52,171.85z
		 M193.33,219.5c0.72-26.7,8.13-43.19,19.95-43.19c14.24,0,16.4,18.35,16.4,43.41L193.33,219.5z"/>
	<polygon class="st1" points="298.3,74.77 219.36,142.68 254.52,142.68 298.74,104.86 343.6,142.68 378.76,142.68 360.43,127.21 	
		"/>
	<polygon class="st2" points="399.04,21.26 360.43,127.21 378.76,142.68 423.41,21.26 	"/>
</g>
</svg>
